<?xml version="1.0" standalone="no"?><!DOCTYPE svg PUBLIC "-//W3C//DTD SVG 1.1//EN" "http://www.w3.org/Graphics/SVG/1.1/DTD/svg11.dtd"><svg t="1721632927277" class="icon" viewBox="0 0 1084 1024" version="1.1" xmlns="http://www.w3.org/2000/svg" p-id="9346" xmlns:xlink="http://www.w3.org/1999/xlink" width="1em" height="1em"><path d="M783.964327 396.975705c0 0.161823 0.161823 0.300529 0.231176 0.462353h0.115588v-0.300529h-0.346764z" fill="currentColor" p-id="9347"></path><path d="M1069.027552 426.774302c8.645985 0 17.500029-1.15588 14.40227-10.495394-3.375171-10.264218-9.686278-23.117608-20.805847-25.868603-26.862661-6.935282-51.136149-17.384441-71.664585-36.317763-2.057467-1.918761-3.583229-3.536994-1.687586-5.98746 11.558804-14.957092-5.686932-15.07268-11.235157-19.649967-4.623522-3.883758-13.107684-2.959054-19.095144-5.756285-16.644678-7.744399-25.544957-3.698817-25.151958 17.962382-10.865276-11.558804-22.216021-7.698164-33.266238-6.334225-2.542937 1.294586-5.062756 2.61229-7.582576 3.929994-3.074642-3.513876-5.89499-7.44387-11.188922-7.790634-4.623522-2.173055-2.519819-9.848101-8.692221-10.842158-17.01456 12.206097-33.797943 25.03637-55.158613 28.735186-5.80252 0.994057-0.554823 12.945861-10.217982 9.247044-3.490759-1.363939-8.137398-5.710049-10.819041 0.855351-1.64135 4.091817 2.566055 6.496048 4.392346 9.57069s6.033696 5.918108 4.091816 11.027099c-7.397635-0.161823-13.292625-7.282047-21.013906 0s0.115588 12.182979-0.231176 18.031734c5.89499 1.502645 10.911511-4.623522 17.338206-1.710703 3.398288 1.54888 5.478873 2.866583 4.346111 6.403578a16.575325 16.575325 0 0 1-3.814406 5.432638c-11.350746-6.935282-9.66316 3.560112-11.859333 8.784691-4.438581 10.472276 9.247043 5.871872 9.96369 11.998038-11.420098 10.033042-21.93861 12.113627-30.584596-3.398288-0.254294-0.439235-2.311761 0-3.421406 0.184941 0-3.513876 1.456409-7.420752-1.803173-10.102395a5.039639 5.039639 0 0 0-4.623522 1.433292c-2.496702 5.964343 2.149938 8.437927 6.079931 11.165805 5.455756 10.865276 2.889701 16.737148-10.05616 16.182325l-4.92405-4.623521c0.762881-4.322993 6.796577-9.038985 1.340821-12.85339-6.773459-4.623522-7.143341 6.449813-12.529744 6.5654-19.973613 2.912819-20.29726 3.167112-18.35538 13.870565l-0.346765 4.623522c-6.172401 0.901587-7.513223 6.611636-10.564746 10.6341-13.084566 5.617579-21.753669 21.961728-40.039698 15.419444-4.623522-1.664468-7.53634 5.478873-7.813751 8.807809-1.340821 16.182326-13.153919 11.928686-20.412848 9.038985-15.07268-6.033696-23.718666 3.2827-28.619599 12.737802-6.796577 13.223272 12.552861 4.947168 14.00927 13.153919l-29.798596 0.809116c-14.795269 0.138706-20.805847 17.153265-19.210733 21.892375 4.068699 12.85339-0.531705 13.870565-10.171747 14.124858a4.762227 4.762227 0 0 0-7.44387-0.346764c-2.519819 2.542937-4.068699 5.663814-0.462352 8.761574 12.27545 12.136744 9.062102 33.520532 26.631484 43.044986 6.819694 3.6757 2.681643 7.998692-3.560111 9.247043-6.935282 1.433292-8.276104 6.264872-8.091163 12.414156 0.254294 8.160516 5.710049 3.629464 9.247043 4.022464 7.952457 0.901587 2.057467 6.403577 3.120877 9.616925-5.224579 1.040292-12.414156 1.571997-10.749688 8.807808 2.173055 9.455102 10.194865 8.229868 17.523147 6.28799l7.420752-3.999346 4.207405 3.929993a17.500029 17.500029 0 0 1-16.182326 10.264218 3.906876 3.906876 0 0 0-3.536994 5.132109 94.1349 94.1349 0 0 0 12.27545 13.107684c2.311761 1.941879 6.149284-0.670411 5.594461-2.196173-3.606347-10.333571 9.709395-13.500683 8.923397-22.331609 6.519165 3.860641 2.080585 9.247043 2.080585 14.171093-3.259583 4.114934-2.196173 8.11428 0.300529 12.113627 5.548226 6.935282 4.623522 24.273489 21.36067 12.737802 1.964997-1.340821 4.623522-1.780056 5.89499 1.410174a4.114934 4.114934 0 0 1-2.959054 5.686932c-14.425387 4.947168-6.935282 10.379806-0.439235 15.835561l29.706127 23.533725c6.935282-0.277411 12.76092-4.34611 19.072027 5.964343a35.416176 35.416176 0 0 0 29.775479 15.650621c11.558804 0 21.684316 4.623522 31.648005 11.11957 6.750342 4.484816 4.623522 12.645332 10.703453 16.344148 11.674392 7.097106 62.255719 4.392346 72.219408-4.392345 3.2827-2.912819 5.571344-6.935282 0.832234-10.980864 7.92934-11.78998-3.721935-13.708742-9.362632-18.679027 3.953111-4.34611 6.010578-10.657217 12.66845-12.18298l3.953111 4.785345c6.172401 7.143341 22.007963 9.686278 20.343495 5.108992-6.449813-17.800558 11.558804-9.247043 13.5238-15.928032 3.398288-1.872526 3.906876-4.900933 3.305818-8.368575a13.870565 13.870565 0 0 1 11.396981-5.039638c5.039639-0.184941 10.657217 8.461045 14.633446 1.109645 4.438581-8.276104-9.940571-5.548226-9.478219-12.945861 4.623522-2.70476 9.66316-8.229868 14.217329-7.859986 18.239793 1.456409 13.662506-6.264872 7.305164-15.535033a21.961728 21.961728 0 0 0 11.373863-10.657217c2.70476-8.553515 8.368574-12.136744 17.476912-13.084567 6.47293-0.670411 15.488797-10.009924 10.587864-12.391037-21.799904-10.587865 1.595115-16.297914 1.132763-24.019195-0.323647-2.70476-0.670411-5.40952-1.017175-8.114281 1.15588-8.252986-6.103049-5.918108-9.940571-7.883104 3.236465-5.686932 10.541629-11.373863 0-17.060795 8.206751-5.201462 10.495394-11.558804 3.999346-19.71932-0.832234-3.745053 14.078623-4.785345 1.664468-10.911511-3.906876-1.918761-0.277411-5.039639 1.780056-7.143341 17.315088 1.387056 17.268853-6.935282 10.772805-19.072026 7.305164-6.588518 16.760266-1.710703 24.782076-6.727224 0 6.935282-6.172401 12.021156 0.323647 17.222618 1.479527-0.878469 3.698817-1.433292 4.392345-2.797231 7.790634-14.933975 17.10703-20.805847 36.433351-19.002674 12.506626 1.225233 28.342188-7.513223 42.443928-12.506626 1.733821-0.624175 4.138052-4.322993 3.652582-5.50199-8.137398-19.118262 11.951803-37.774172 0.832234-56.799964 0.809116-9.801866-6.680989-15.396327-11.327628-22.470315-5.40952-6.103049-2.681643-11.651274 3.814405-11.674392z m-156.968559 258.524212l-0.254293-0.208059 0.323646 0.161824z m-86.20556-201.678013l0.231176-0.300529v0.300529h-0.138706z m119.887915 137.179886zM78.391809 304.482155c2.959054 4.461698 2.61229 9.038985 1.086528 13.986153a5.640696 5.640696 0 0 0 3.929993 7.258929c4.762227 1.433292 5.987461-2.727878 7.721281-5.848755l3.19023 4.276758c2.982171 7.721281 6.542283 6.565401 10.402924 1.132763h0.231176c-1.64135 10.009924 4.299875 14.194211 12.830272 16.413501v0.161824H117.899801c-0.254294 2.681643-2.12682 5.756284 1.849409 7.420752 3.444524 5.478873 9.062102 3.560112 13.870565 4.114934 5.293932 24.481547 13.708742 30.052891 31.000712 20.805847l1.45641 0.393h1.525762c21.221964 8.322339 36.225292 33.566767 64.313186 23.718666 0.97094-0.346764 3.259583 3.305818 5.016521 5.039638s4.068699 5.617579 5.108991 2.750996c5.432638-14.933975 21.406905-8.784691 30.35342-16.182326 6.727224 10.033042 12.876508 9.640043 16.945206-1.733821 1.733821-4.808462 1.248351-10.402924 1.756938-15.627503 1.733821-3.629464 5.132109-4.230522 8.576633-4.762227a9.247043 9.247043 0 0 0 6.565401-9.755631l7.929339-1.132762c11.327628 3.906876 27.116954-13.870565 35.09253 7.166458 0.208058 0.601058 4.438581 0.762881 4.83158 0 6.634754-11.836215 25.059487-14.88774 24.06543-32.364651 2.011232-6.935282 13.870565 0.693528 13.33886-8.183634s-9.686278-0.994057-13.431331-4.993403l1.225233-17.916146c5.779402-4.484816 6.010578-8.229868-1.433291-10.980864-7.143341-10.426041-27.74113-11.974921-20.805848-32.503357 0.716646-2.080585-5.617579-18.101087-19.488143-9.66316-4.924051 2.982171-15.95115 4.230522-17.083913-8.738456-0.369882-4.392346-5.224579-6.449813-10.194865-4.785345-9.247043-10.518512-8.345457-25.753015-17.1995-36.410233a6.218637 6.218637 0 0 0-1.387057-2.057467c-0.716646-5.31705 7.53634-12.85339-1.595115-15.604385-7.790634-2.311761-9.247043 7.397635-13.477565 11.813097-7.212694 6.519165-11.882451 0.161823-15.142034-4.276757-5.132109-6.935282-13.43133-9.66316-18.494086-14.147976-13.269507-11.558804-23.672431-20.112319-43.437986-16.829619-5.964343 0.994057-17.176383-1.849409-25.660545-1.271469-9.940571 0.670411-9.431984 6.126166-2.311761 11.558804l-3.652582 3.606347a3.791288 3.791288 0 0 0-3.120877-0.994057c-5.663814-3.560112-10.264218-4.623522-10.911511 4.392346-0.647293 2.311761 5.062756 7.351399-3.375171 6.287989-10.426041-1.317704-7.258929-12.391038-13.708741-19.002674-4.184287 17.060795-12.922743 18.910203-25.082605 10.426042a8.229868 8.229868 0 0 0-4.877815-1.155881c-7.212694 14.517858-20.505318 10.6341-32.618945 11.905568-5.710049 0.601058-8.99275 7.097106-11.050217 13.593154a282.936406 282.936406 0 0 1-11.558804 31.347477c-6.47293 14.263564-5.016521 30.908242-0.762881 38.190288 7.975575 13.084566 13.130801 29.937303 27.533071 39.161228zM561.133702 780.381236c2.519819 6.634754 3.721935 14.772152 14.147976 12.321685 8.137398 22.701491 17.338206 7.097106 26.307838 0.739764 19.048909 0.809116 19.048909 0.809116 14.98021-14.656564 0-19.395673 0-19.395673-11.905568-15.373209-7.397635-0.48547-7.305164-5.89499-6.218637-10.749688 1.340821-5.987461 1.687585-12.968978-4.785344-13.639389-10.14863-1.086528-5.363285 8.553515-6.935283 13.593154-9.963689-7.744399-19.927378 3.051524-29.891067 0 8.622868 8.11428-3.536994 19.557496 4.299875 27.764247z" fill="currentColor" p-id="9348"></path><path d="M666.156996 458.792189a35.346823 35.346823 0 0 0-18.817733 13.269508c-2.12682 3.259583 2.03435 5.848755 5.062756 5.50199a24.458429 24.458429 0 0 0 18.84085-12.067391c0.277411-4.369228-2.658525-7.559458-5.085873-6.704107zM982.729521 588.551324c-6.033696 2.681643-15.511915 3.444524-14.58721 13.015213 0.369882 3.814405 1.317704 10.2411 6.680988 10.402924 6.426695 0 11.859333-9.038985 12.136745-17.291971 0.161823-3.352053-1.040292-7.44387-4.230523-6.126166zM436.922794 385.71743c3.883758 0.531705 11.30451-1.733821 10.379806 3.791288-2.311761 13.523801-1.826291 19.118262 12.622214 9.385749 3.490759-2.311761 5.733167 3.398288 8.622867 5.270815 4.091817 2.658525 9.247043 8.414809 12.090509 7.443869 22.262257-7.605693 9.455102 9.015867 11.165805 15.419445-9.478219 0-9.247043 4.623522-4.022464 10.009924 7.44387 7.952457 15.789326 7.813752 24.250371 1.387057-1.132763 8.622868 2.03435 13.061449 11.258275 11.558804 6.033696 3.953111 12.229215 7.698164 18.031735 11.998038 3.629464 2.681643 6.935282 3.906876 8.137398-1.410174 3.999346-16.182326 15.07268-11.281393 22.308492-5.548226 8.830926 6.935282 11.142687 1.756938 17.1995-3.051524s10.472276-10.125512 21.84614-10.865276c16.04362-1.040292 37.959113-3.6757 46.558863-24.527782l7.790634-3.906876c14.88774 3.051524 2.103702-14.217329 11.258275-15.350091l-0.208059 0.231176h0.254294v-0.208059c9.247043-7.374517 12.044274-25.891721 30.422772-17.037677 0.254294 0.138706 2.311761-2.196173 2.12682-2.589172-7.651928-14.217329 6.796577-15.118916 12.876508-19.788673 6.565401-5.016521 5.386403-8.692221 3.375171-15.396327-2.935936-9.66316-11.235158-22.077316 6.380459-27.533071 4.392346-1.64135 9.501337-1.988114 12.252333-6.634754l7.143341-12.159861c11.558804-12.067391 6.680989-23.741784-1.733821-34.445237-3.536994-4.484816-6.588518-7.143341-0.739763-11.558804 13.870565-10.564747 1.780056-12.182979-5.455756-15.396327-0.832234-6.773459-6.264872-4.623522-10.264218-5.293932a9.894336 9.894336 0 0 1-0.231176 3.2827 13.662506 13.662506 0 0 1 0.231176-3.2827c0.369882-4.25364 3.745053-5.918108 6.819694-7.836869 13.708742 2.797231 15.442562-7.859987 13.292625-15.511915-4.276758-15.142033 2.912819-30.93136-4.415463-45.91157-1.340821-2.70476 2.311761-14.240447 12.506626-9.247043 9.062102 4.623522 10.310453 1.040292 7.120223-6.935282-0.994057-2.473584-6.403577-4.484816-2.843466-7.282047 19.465026-15.373209-1.826291-19.210732-7.490105-27.417483 3.606347-4.623522 13.754977-4.138052 12.229215-12.159862s-7.351399-6.611636-12.599096-2.311761c-0.254294 0.231176-2.311761-0.762881-2.450467-1.479527-3.698817-14.124859-15.881797-23.117608-25.198193-31.5093s-21.36067-16.066738-28.943245-25.891721c-11.235158-14.540976-19.095144-21.499376-30.769536-1.826291-0.208058 0.346764-2.311761-0.369882-3.375171-0.57794 0-9.08522 0.161823-9.247043-21.037024-24.782076-5.779402-4.230522-13.477566-10.171748-20.112319-5.155227-10.217983 7.744399-17.777441 2.727878-27.301895-0.647293-15.881797-5.478873-31.046948-4.669757-41.149342 12.090509-3.929993 6.47293-11.165805 7.813752-17.569382 10.587865-2.866583-8.437927 12.784037-12.414156 3.721934-18.147322-7.073988-4.484816-17.060795-0.716646-23.117608 6.218636-2.103702 2.311761-1.826291 8.276104-5.640696 8.784691-25.175075 3.352053-37.427408 25.198193-55.48226 38.490818-7.559458 5.525108-6.634754 13.546918 0.254294 18.494086l6.935283 0.947822c0 2.311761 0.208058 4.461698 0.300529 6.680989-6.935282-2.311761-11.558804-1.317704-10.310454 7.466987l11.373863 8.299222a1.826291 1.826291 0 0 1 0.508588-1.225234c-0.161823 0.392999-0.323647 0.809116-0.508588 1.225234a7.513223 7.513223 0 0 1-0.392999 3.2827l-4.045581 0.208059c-4.438581 0-9.247043 0.739763-9.524455 5.802519-0.277411 5.871872 6.241754 6.357342 9.871219 9.08522a15.581268 15.581268 0 0 0-0.184941 2.750995c-5.640696 8.183633-9.848101 18.494086-8.553515 26.978249 0.601058 3.999346 14.818387 5.987461 23.649313 9.247043-19.048909 18.679027-19.696202 28.873893-3.120877 47.529803 5.155227 5.80252 1.756938 11.720627 2.750995 17.500029-4.34611 1.410174-3.929993 4.623522-3.074642 8.02181h-4.299875c-0.670411-7.651928-3.051524-16.945207-11.859333-13.870565-8.183633 2.889701 0.716646 10.05616 1.363939 15.419445 0.231176 1.803173 0.277411 3.629464 0.416117 5.455755-1.433292 5.571344-12.483508 12.807155 2.658525 15.535033 4.623522 3.259583 5.201462 7.813752 0.161823 9.894336-21.314435 8.761573-24.111665 29.451833-32.017887 47.113686-3.143995 6.935282-3.19023 13.523801-3.490759 20.805847a119.74921 119.74921 0 0 0 5.178345 41.935341c-6.796577 0.57794-16.04362 2.311761-13.315743 10.102395 3.074642 8.900279 11.21204 1.710703 17.153266-0.023118z m184.779041-134.082127h-0.254293l-0.994058-0.277411 0.416117-0.670411z m0 0z m-1.248351-36.988173a1.964997 1.964997 0 0 1 0.138706-0.970939c0.115588 0.323647 0.208058 0.670411 0.300529 1.017174z m-23.117608 19.118262h-0.115588a2.149938 2.149938 0 0 1 0.231176 0zM975.956062 627.712552a8.391692 8.391692 0 0 0-7.490105 8.622868 4.299875 4.299875 0 0 0 4.947168 4.114934 9.08522 9.08522 0 0 0 8.622868-7.675046c-0.832234-3.213348-2.61229-5.779402-6.079931-5.062756zM320.849283 128.487805c1.502645-0.762881 2.519819-2.519819 3.745053-3.814406 14.795269-2.750995 20.805847 9.247043 27.070719 18.147323 3.976229 5.663814 17.268853 17.708088-4.438581 19.927378-4.947168 0.508587-4.623522 5.663814-2.750995 8.923397 3.490759 6.241754 6.704106 15.55815 11.974921 17.153265 7.906222 2.311761 5.178344-9.038985 9.062102-13.33886 2.03435-2.311761 3.120877-5.293932 6.542283-5.89499 10.079277-1.780056 8.414809-4.068699 2.774113-11.420099s-14.078623-19.673085 3.976229-25.198192c5.548226-1.687585 6.403577-5.201462 4.762227-9.963689-3.005289-8.854044-2.61229-18.101087-3.76817-27.16319-1.687585-13.315742-24.319724-28.365305-38.190289-26.354073-15.696856 2.311761-25.776133 16.367267-21.591846 33.774825 1.756938 7.258929-2.450466 11.558804-2.820348 17.407559-4.623522 2.311761-13.33886 2.982171-9.524455 10.310453 4.415463 8.484162 9.038985-0.346764 13.177037-2.496701z" fill="currentColor" p-id="9349"></path><path d="M452.319121 210.023608a10.310453 10.310453 0 0 0 6.056813-7.605693 4.438581 4.438581 0 0 0-4.484816-6.056813c-4.392346-0.184941-5.918108 3.2827-6.611636 6.935283s1.202116 5.571344 5.039639 6.727223zM761.655835 394.178475c-4.184287-0.115588-7.097106 1.756938-6.47293 6.241754 0.439235 3.328936 3.213348 4.785345 6.5654 4.623522s5.178344-2.311761 6.033696-5.432638c-0.97094-2.935936-2.589172-5.340167-6.126166-5.432638zM369.488731 256.050766c-3.629464 0.439235-5.640696 2.473584-5.132109 5.918108 0.57794 3.791288 2.820348 6.935282 6.935282 7.282047a4.623522 4.623522 0 0 0 4.970286-5.825638 8.137398 8.137398 0 0 0-6.773459-7.374517zM575.027384 495.364246c-3.305818 0.924704-5.710049 2.959054-4.623521 6.496047 1.225233 4.068699 4.762227 5.293932 8.830926 4.900933a3.999346 3.999346 0 0 0 3.837523-5.108991c-0.855352-4.091817-3.976229-5.964343-8.044928-6.287989zM428.045632 271.030976c3.143995-0.184941 5.201462-2.589172 5.40952-6.935282-0.346764-2.311761-1.456409-5.594461-4.623521-5.964343-4.623522-0.508587-5.640696 3.352053-5.848755 7.073988s1.64135 6.056813 5.062756 5.825637zM308.180834 368.217401a7.813752 7.813752 0 0 0-4.068699 5.155226 4.623522 4.623522 0 0 0 5.062756 5.733167c3.398288-0.161823 4.924051-2.889701 4.808463-6.334224-0.554823-3.2827-2.21929-5.918108-5.80252-4.554169zM970.939541 579.558574c2.889701-1.109645 7.605693-1.017175 8.068045-5.710049 0.392999-4.068699-2.496702-4.762227-5.710049-4.808462-3.906876 0.184941-7.53634 1.988114-8.091163 5.617578-0.369882 2.381114 2.61229 6.103049 5.733167 4.900933zM426.0344 281.826899c0 3.421406 1.571997 6.195519 4.900933 6.727224a4.322993 4.322993 0 0 0 4.762227-4.415463c0.231176-3.467641-1.803173-5.525108-5.201462-6.657871-2.173055 0.57794-4.554169 1.040292-4.461698 4.34611zM528.838403 665.278665A4.392346 4.392346 0 0 0 524.769704 670.457009a4.993403 4.993403 0 0 0 6.750342 4.138052 3.906876 3.906876 0 0 0 2.750995-5.571343 5.224579 5.224579 0 0 0-5.432638-3.745053zM596.596113 718.426046c3.906876 0.346764 5.270815-2.311761 6.311107-5.386402-0.647293-2.311761-0.97094-4.877815-4.230522-5.108992a5.640696 5.640696 0 0 0-6.28799 5.340168 4.623522 4.623522 0 0 0 4.207405 5.155226zM52.846852 771.689015a4.924051 4.924051 0 0 0-5.594461 3.698818c-0.924704 3.883758 1.664468 5.710049 4.970286 6.010578 2.866583 0.254294 4.114934-2.12682 4.900933-4.900933-0.716646-2.011232-0.97094-4.692874-4.276758-4.808463zM446.539718 188.200586c2.61229-0.508587 3.120877-3.167112 2.704761-6.657871-0.762881-0.878469-0.323647-4.623522-3.814406-3.236465a7.53634 7.53634 0 0 0-4.207404 4.808463 4.207405 4.207405 0 0 0 5.317049 5.085873zM531.080811 781.167235c0.138706 1.363939 1.780056 2.589172 3.236466 4.623521 1.479527-1.895644 3.19023-3.120877 3.236465-4.392345s-1.15588-3.837523-2.311761-4.16117c-2.912819-0.924704-4.415463 1.317704-4.16117 3.929994zM681.761381 405.159339a3.328936 3.328936 0 0 0 3.606347-4.623522c-1.64135-4.184287-5.733167-2.542937-8.923397-2.959054 0.462352 3.513876 0.901587 7.258929 5.31705 7.582576z" fill="currentColor" p-id="9350"></path><path d="M725.384308 899.32133c-2.12682-2.311761-4.091817-6.149284-6.426695-6.38046-17.10703-1.64135-16.436619-10.009924-10.564747-22.747726 2.658525-5.756284-2.103702-15.095798-6.311107-16.182326-12.067391-3.028407-10.587865-22.377845-23.441255-20.135437-18.817733 3.236465-5.733167-20.343495-19.048909-20.274142a34.514589 34.514589 0 0 1-5.478873-0.832234c-0.901587-0.924704-1.803173-1.826291-2.681643-2.750995 0-0.739763-0.277411-1.271468-1.15588-1.202116-4.091817-2.727878-7.513223-12.830273-12.483509 0-2.173055 5.640696-8.229868 9.778748-14.448505 2.196173-3.259583-3.999346-5.386403-11.420098-12.575978-7.466988-6.311107 3.490759-3.560112 10.819041-4.623522 16.482855-5.525108-3.167112-10.033042-2.473584-13.107684 3.513876h-1.340821l-4.322993-4.299875c2.450466-9.038985 0.115588-12.067391-8.715338-6.935282l-7.073988 0.346764-11.558804 0.739763-3.837523-0.277411-6.657871-0.994057c-5.571344-7.374517-10.449159-1.826291-15.46568 0.855352-6.542283-1.895644-9.501337 2.311761-12.113627 7.097105-17.615617 6.311107-6.357342 11.951803 0.416117 17.708088 7.744399 0.208058 9.431984 6.542283 12.067392 11.928686l-4.322993 3.999346-11.050217 2.959054-0.48547-4.091817c0.601058-3.6757 2.820348-7.92934-3.143994-9.408866-4.461698 0.346764-3.074642 3.6757-3.167113 6.264872l-1.433291 0.508587c-3.236465 1.109645-8.068045-2.635407-9.801866 3.167112q-0.323647 1.780056-0.554823 3.536994c-11.142687 0-20.158554 6.218637-29.798597 10.54163a13.870565 13.870565 0 0 1-1.895643-2.311761c-0.208058-0.346764 0.184941-1.132763 0.508587-1.595115 12.460391-17.384441 12.460391-17.384441 1.941879-19.418791 0.277411-10.426041 9.247043-15.326974 14.40227-22.655256 2.311761-3.19023 8.461045-5.270815 5.085874-10.310453a7.767516 7.767516 0 0 0-11.558804-0.994057c-7.744399 7.235811-12.714684 2.311761-15.812444-3.76817-3.6757-7.328282 3.814405-9.755631 8.044927-13.754977 9.501337-9.015867 23.233196-3.490759 33.220003-10.310454l7.212694-8.044927c3.6757 2.566055 8.02181 7.998692 11.78998 2.311761 4.970286-7.582575-7.605693-6.056813-7.675046-11.766863l2.70476-8.137398c5.478873-6.519165 3.837523-16.182326 11.743745-22.354727 7.420752-5.733167 12.483508-14.540976 4.184287-24.088548-2.589172-2.959054-2.149938-5.085874 0-7.859986 5.941225-7.490105 5.594461-11.188922-4.900933-7.050871-5.432638 2.149938-6.357342-1.017175-7.282046-4.900933-2.196173-9.038985-10.079277-11.373863-19.210733-14.471622 15.442562-14.98021 6.311107-21.638081-7.605693-26.816426a41.195578 41.195578 0 0 1-7.53634-4.83158l9.247043-7.120223 8.068046-8.091163 6.935282 5.039638c0.346764 4.924051-1.687585 13.153919 5.756284 12.021157 8.530397-1.317704 3.143995-7.92934 1.248351-12.460391 3.698817-12.298568 6.704106-24.851429 11.281393-36.803232s-2.311761-39.299934-12.460391-45.587923c-16.482855-10.379806-36.618291-18.494086-29.313127-44.524514a4.623522 4.623522 0 0 0-1.15588-3.120877c-13.870565 1.687585-9.015867-11.142687-13.269507-16.852736 3.976229-6.588518 3.583229-12.506626-2.727878-17.476912-11.558804-11.443216-8.252986 5.201462-12.876508 6.935283l-7.05087 0.231176c-1.248351-16.690913-5.455756-29.86795-23.117608-38.629524-11.420098-5.686932-22.077316-4.993403-33.196886-6.680988 1.06341-2.12682 2.12682-4.25364 3.213348-6.38046 3.375171-5.432638 1.780056-11.974921-4.138052-8.322339-13.200154 8.160516-16.737148 0.785999-19.696202-9.755631-7.258929 3.629464-5.89499 13.546918-13.870565 15.072681-15.766209-9.247043-31.694241-18.494086-43.646044-37.681701-1.756938 15.003328 0.462352 28.457776-5.686932 39.299933-5.548226 9.66316 0.300529 21.892375-8.576632 30.052891-0.670411-3.167112-1.872526-6.103049-5.779402-5.293932a4.623522 4.623522 0 0 0-3.58323 5.525108c0.462352 3.583229 1.178998 7.166459 1.780056 10.749688l-11.998038 2.149937c-9.247043-4.785345-23.256314 6.47293-29.012599-9.062102 6.195519-6.403577 5.201462-10.05616-3.999346-10.6341-2.080585-10.472276-5.89499-12.714684-16.182326-6.449812-9.501337 5.848755-13.616271 17.846793-25.429368 20.435965 1.248351-3.2827 2.843466-6.796577-0.624176-9.547572a3.6757 3.6757 0 0 0-5.779402 1.387056c-1.941879 4.138052 1.618233 6.241754 3.929993 8.738456-8.068045 4.762227-11.258275-12.992096-20.158554-4.369228l-14.933975 1.132763a4.022464 4.022464 0 0 0-2.31176-0.161823l-8.299222-0.554823c0.208058-11.998039-5.525108-8.299221-11.396981-4.322992-12.090509 3.19023-21.106376 9.247043-21.823022 23.117608C113.27628 467.022058 113.27628 467.022058 104.86147 477.725511c-0.208058 0.254294-2.12682-0.809116-3.236465-1.248351-1.756938-4.623522-1.387056-11.743745-8.461044-11.165805-5.571344 0.462352-3.167112 6.426695-3.999346 10.079277-8.715338-3.791288-9.824983 5.178344-14.286682 8.50728h-14.217329l-8.761574 7.698163c-5.178344 2.658525-9.917454 5.455756-3.352053 11.558804l-3.536994 5.779403-3.721935 3.721934c-15.442562 2.889701-4.83158 21.915492-16.714031 27.001367 3.698817 8.137398-15.07268 9.431984-5.89499 19.256967l7.120224 7.513223 0.554822 2.635407c-12.529744 6.311107-16.991442 17.569382-18.74838 30.492125v6.935283c-5.501991 5.640696-3.352053 12.529744-3.143995 19.118262-3.883758 1.664468-5.455756 4.623522-3.698817 8.461044 2.496702 5.31705 6.750342 3.097759 10.610982 1.687586 5.941225 5.501991 8.645985 12.575979 10.865276 20.181672 1.132763 3.860641-6.311107 8.11428 0 10.772805s10.033042-2.03435 13.015213-6.935282a2.450466 2.450466 0 0 0 2.311761-1.479527l15.488798 0.624175c0.138706 2.542937 0.300529 5.085874 0.439234 7.628811l-9.108337 7.975574c-4.045581 5.756284-15.165151 0.462352-16.482855 11.142688-1.479527 11.928686 4.623522 25.429369-9.686278 35.023176-4.161169 2.935936 2.70476 9.871219 8.854044 10.194865 4.623522 0.231176 9.247043-3.398288 14.171094-1.086527 1.132763 2.542937 2.311761 5.108991 3.375171 7.651928-3.583229 0.439235-8.02181-0.138706-9.709396 3.883758-2.889701 6.935282 6.149284 6.519165 7.397635 11.096452-1.571997 3.953111-1.363939 7.836869 3.837523 7.189576 5.918108-0.762881 5.039639-5.571344 3.76817-9.871219 5.825637-0.716646 9.640043-4.623522 13.33886-8.59975 4.091817 1.109645 7.605693 2.912819 8.738456 7.490105-16.020502 17.1995 6.727224 24.412194 10.033042 35.924763-5.039639 6.033696-15.211386-2.866583-16.552208 5.386403-1.64135 10.05616 9.894336 6.357342 14.910857 9.894336 3.120877 2.196173 9.547572 0.809116 6.357343 7.906222l-7.235812 9.894336c-0.138706 10.333571 7.952457 9.57069 14.540976 10.819041 9.940571 12.599096 12.36792 3.652582 14.818387-5.178344 6.565401 1.040292 14.656564-5.31705 19.441908 4.623521 1.664468 3.444524 3.236465 9.385749 9.038985 6.727224 4.877815-2.311761 1.733821-7.859987 3.074642-11.720627 1.132763-3.259583-3.999346-6.935282 0-9.478219 14.818387-0.832234 5.686932 13.870565 12.737802 18.008616-3.19023 13.500683 10.518512 7.813752 14.702799 12.968979 8.645985 1.964997 17.384441-5.270815 26.28472 0.855351a5.247697 5.247697 0 0 0 7.952457-4.623522c-1.988114-23.464372 12.044274-16.297914 23.117608-11.558804 11.373863 4.854698 11.165805-1.086528 10.472277-8.923396a5.686932 5.686932 0 0 0 3.028406 0.485469c6.935282 5.825637 12.922743 7.374517 15.188269-4.184287 2.12682-6.542283 2.311761-11.882451-6.935282-11.350745a5.178344 5.178344 0 0 0 0.739763-3.352053c9.66316-3.467641 21.106376 5.640696 29.821715-4.276758-7.44387-5.941225-16.182326-9.431984-25.244429-6.565401-5.132109 1.595115-7.212694-0.208058-8.368574-3.652582-1.317704-3.837523 2.750995-4.623522 5.201462-6.311107 10.079277-6.935282 20.944553-5.964343 32.017887-3.536994 11.327628 9.247043 11.21204 1.294586 10.726571-7.166458 9.247043 6.796577 11.766863-1.06341 14.98021-7.143341 11.003981 0.508587 7.53634-7.906222 8.437927-13.639389 2.12682-2.797231 2.750995-6.935282-0.48547-7.813752-15.46568-4.25364-9.801866-14.679681-6.565401-23.256313 1.895644-4.993403 2.12682-7.906222-2.12682-10.865276l8.530398-6.357342 7.62881-2.057467c11.350746-4.114934 22.678374-5.016521 25.198193-22.863315 1.15588-8.044928-3.721935-21.684316 7.744399-28.180364 6.218637-0.624175 13.200154 2.311761 18.216675-3.929994 16.04362-5.987461 0.647293-21.037023 8.461045-29.405597 6.496048 1.363939 15.95115 7.05087 17.869911-2.635407 1.571997-8.02181-9.038985-4.161169-14.009271-6.103049l-1.294586-6.565401c-2.311761-6.403577 6.172401-14.009271-2.12682-19.788672-7.282047-5.386403-4.207405-13.107684-4.623521-20.066084 5.340167-0.462352 7.790634-3.490759 6.935282-8.669103-0.878469-6.056813-5.178344-7.744399-10.6341-7.513223-0.601058-4.785345 3.352053-14.379152-8.276104-7.513222l-3.167112 4.276757-3.976228-0.624175-0.762881-6.172402c9.824983-5.663814 15.07268-12.206097 4.34611-21.961727a8.437927 8.437927 0 0 1-2.473584-8.252987h1.06341l1.017175-0.369881c2.542937 1.918761 5.501991 3.606347 7.559457 0a5.40952 5.40952 0 0 0-2.31176-7.767517 11.558804 11.558804 0 0 0-12.367921-6.796576l-6.935282-8.391692c0-2.311761 0-4.623522-0.161823-6.935283 1.15588-1.271468 2.311761-2.519819 3.444523-3.791287 8.276104 0.947822 11.743745-3.120877 11.558804-11.027099l-13.870565-18.840851c-3.536994-10.657217 7.744399-7.44387 11.003982-11.743745 7.05087 7.466987 15.604385 7.166459 24.574017 4.623522 1.363939 3.721935 3.005289 7.120223 7.767517 7.097105-4.900933 16.598443-15.095798 33.613002 3.791287 48.362037-3.860641 1.595115-6.103049 4.230522-3.051524 8.02181 2.196173 2.750995 5.155227 2.450466 7.374517-0.670411 6.426695 4.415463 12.552861-13.593154 19.095144-0.231176 0.392999 7.258929 6.241754 6.935282 11.11957 7.929339-4.623522 12.992096-10.05616 26.400308 5.340167 36.109704 6.935282 4.369228 14.841504 7.258929 22.470315 10.888394-4.623522 10.125512-10.171748 4.415463-16.436619 2.311761s-10.14863 1.132763-9.778748 8.923396c0.184941 3.860641-4.484816 8.484162 3.745052 8.784691 18.933321 0.716646 22.562786 14.471623 24.782076 29.359363-6.611636 11.882451 6.935282 19.395673 6.47293 30.05289-12.27545 13.038331 8.50728 8.669103 8.137399 15.419445 2.681643 7.120223 1.988114 13.523801-7.282047 10.72657-10.749688-3.236465-22.331609 0.947822-32.364651-4.785345-4.808462-2.70476-11.003981-1.525762-8.02181 3.398289 5.155227 8.484162-0.647293 14.055506-1.433292 20.805847l-8.276104 5.062756a2.311761 2.311761 0 0 0-2.750995 1.687586c-14.88774 6.796577-23.441255 18.702145-20.482201 34.676412 1.826291 9.940571 1.225233 14.841504-8.345457 18.632792-6.311107 2.496702-4.392346 8.414809 0.785999 8.437927 8.576633 0 11.558804 3.19023 9.894336 10.657217s-7.351399 6.565401-13.130801 3.999346c-3.398288-1.525762-7.513223-2.311761-10.05616 1.479527s0 7.05087 2.61229 9.778748c12.529744 13.269507 5.108991 33.913531 17.50003 47.206156 0.855352 7.998692 5.31705 5.178344 9.524454 3.143995 15.650621-3.76817 31.416829-8.59975 45.310512 4.623522a12.298568 12.298568 0 0 0-0.994057 10.703452c-4.045581 2.311761-13.523801-0.716646-12.159862 4.623522 3.074642 12.27545-0.392999 26.400308 9.385749 36.988173l-7.073988 7.466987a5.085874 5.085874 0 0 1 1.248351-0.57794c-0.416117 0.184941-0.855352 0.369882-1.248351 0.57794l-5.293932 4.623522c-12.599096-15.488797-10.518512-0.369882-11.350746 5.802519-1.410174 10.72657-0.323647 21.499376-11.281393 29.266892-4.114934 2.935936-3.606347 10.102395 1.178998 16.344149 6.935282 8.946514 13.385095 19.32632 11.558804 31.486183-2.681643 18.309146 9.986807 26.354073 21.823022 35.254352l8.41481-3.606347c3.629464 6.079931 4.022464 16.575325 16.182325 8.669103a28.989481 28.989481 0 0 1 20.412848-3.652582c6.010578 1.433292 11.558804 3.929993 13.662507-2.635407 2.311761-6.935282-8.553515-3.421406-10.772806-11.766863 23.57996 11.69751 46.235216 20.482201 62.417542-9.131455 9.778748 22.169786 11.21204 22.400962 24.943899 5.108991 5.825637-7.351399 5.779402 0.785999 8.137399 2.681643-2.542937 14.656564 1.687585 22.632138 18.216675 18.494086 6.588518 12.599096 20.274142 9.431984 30.723301 13.084567 3.560112 1.248351 8.738456-3.814405 6.519165-10.194866 1.178998-2.149938 2.311761-4.299875 3.513877-6.449812 4.091817 0 8.299221 0.57794 11.327628-3.120877 14.841504-12.899625 41.126225-16.505972 36.618291-45.218042a5.039639 5.039639 0 0 1 3.513877-5.594461c20.528436-7.466987 22.747726-26.169132 26.677719-43.807867 3.120877 0 6.935282-0.48547 6.588519-4.138052-0.300529-2.311761-3.976229-4.114934-6.079931-5.964343zM63.943304 593.174846c0-0.208058-0.184941-0.392999-0.254294-0.601058h0.115588z m183.114574 32.364651z" fill="currentColor" p-id="9351"></path><path d="M549.389957 745.103766c-3.513876-1.363939-8.484162-6.704106-10.14863-0.161823s6.449813 5.363285 10.171748 7.698163c2.450466 3.421406 4.785345 1.178998 7.143341 0 0.57794-5.40952-1.733821-7.836869-7.166459-7.53634z" fill="#A35B50" p-id="9352"></path><path d="M556.672004 752.524518h-0.115588 0.231176v-0.115588zM738.191463 323.022477c-0.994057 0.785999-3.167112 1.664468-3.236466 2.727878a3.721935 3.721935 0 0 0 4.392346 4.138052 5.201462 5.201462 0 0 0 3.583229-3.028407c1.086528-3.652582-2.149938-3.167112-4.739109-3.837523zM779.641334 405.159339a4.83158 4.83158 0 0 0 4.623522 1.017174c4.623522-2.912819 1.479527-5.89499-0.138706-8.830926-2.750995 1.872526-7.374517 2.843466-4.484816 7.813752z" fill="currentColor" p-id="9353"></path></svg>