<?xml version="1.0" standalone="no"?><!DOCTYPE svg PUBLIC "-//W3C//DTD SVG 1.1//EN" "http://www.w3.org/Graphics/SVG/1.1/DTD/svg11.dtd"><svg t="1721785156136" class="icon" viewBox="0 0 2048 1024" version="1.1" xmlns="http://www.w3.org/2000/svg" p-id="8811" xmlns:xlink="http://www.w3.org/1999/xlink" width="2em" height="1em"><path fill="currentColor" d="M853.333333 661.333333a13.866667 13.866667 0 0 1 10.026667 4.48l26.24 28.586667a210.773333 210.773333 0 0 1-73.386667 54.613333 250.24 250.24 0 0 1-104.106666 19.626667 244.693333 244.693333 0 0 1-96.64-18.346667 211.626667 211.626667 0 0 1-74.026667-51.626666A232.96 232.96 0 0 1 494.72 618.666667a297.386667 297.386667 0 0 1-16.853333-102.186667 279.466667 279.466667 0 0 1 18.133333-102.186667 233.386667 233.386667 0 0 1 50.773333-79.786666 226.986667 226.986667 0 0 1 78.293334-51.84 266.453333 266.453333 0 0 1 100.266666-18.346667 224.426667 224.426667 0 0 1 163.626667 62.506667l-21.333333 30.506666a23.466667 23.466667 0 0 1-5.546667 5.76 15.146667 15.146667 0 0 1-8.96 2.133334 17.28 17.28 0 0 1-9.386667-3.2l-11.733333-8.106667q-6.826667-4.906667-16.213333-10.24a142.08 142.08 0 0 0-21.333334-10.24 182.826667 182.826667 0 0 0-29.653333-8.106667 205.866667 205.866667 0 0 0-39.466667-3.413333 187.733333 187.733333 0 0 0-72.32 13.653333 162.133333 162.133333 0 0 0-56.533333 38.613334 176 176 0 0 0-36.906667 61.226666 233.386667 233.386667 0 0 0-13.226666 80.853334 237.653333 237.653333 0 0 0 13.226666 82.133333 181.333333 181.333333 0 0 0 36.053334 61.013333 152.106667 152.106667 0 0 0 54.186666 37.973334 173.013333 173.013333 0 0 0 67.413334 13.013333 273.92 273.92 0 0 0 39.466666-2.56 162.133333 162.133333 0 0 0 32.64-7.893333 137.173333 137.173333 0 0 0 27.946667-13.866667 218.24 218.24 0 0 0 26.026667-20.053333A17.493333 17.493333 0 0 1 853.333333 661.333333zM1073.92 768a84.053333 84.053333 0 0 1-64-23.04 91.946667 91.946667 0 0 1-21.333333-66.346667v-213.333333h-42.666667a13.653333 13.653333 0 0 1-9.386667-3.2 12.586667 12.586667 0 0 1-3.84-10.24V426.666667l57.173334-7.253334 14.08-106.666666a13.013333 13.013333 0 0 1 4.48-8.32 14.293333 14.293333 0 0 1 9.6-3.2h30.933333v120.106666h99.626667v44.373334h-99.2v209.066666a44.373333 44.373333 0 0 0 10.666666 32.64 37.12 37.12 0 0 0 27.52 10.666667 48.64 48.64 0 0 0 16.64-2.56 71.466667 71.466667 0 0 0 12.16-5.76l8.746667-5.76a11.52 11.52 0 0 1 6.4-2.56 10.453333 10.453333 0 0 1 8.533333 5.76l17.92 29.226667a114.133333 114.133333 0 0 1-38.186666 23.253333 129.706667 129.706667 0 0 1-45.866667 8.32zM1224.746667 762.453333V414.08h34.986666a19.413333 19.413333 0 0 1 13.653334 3.84 23.253333 23.253333 0 0 1 5.12 13.013333l4.053333 54.4a159.36 159.36 0 0 1 44.16-56.96 104.106667 104.106667 0 0 1 87.893333-17.28 91.52 91.52 0 0 1 21.333334 9.173334L1429.333333 466.133333a10.24 10.24 0 0 1-10.666666 8.533334 53.333333 53.333333 0 0 1-14.72-3.2 93.226667 93.226667 0 0 0-27.946667-3.2 78.933333 78.933333 0 0 0-53.546667 18.56 139.306667 139.306667 0 0 0-35.84 53.973333v221.866667zM1570.133333 256v506.453333h-61.226666V256z" p-id="8812"></path><path fill="currentColor" d="M1962.666667 64a21.333333 21.333333 0 0 1 21.333333 21.333333v853.333334a21.333333 21.333333 0 0 1-21.333333 21.333333H85.333333a21.333333 21.333333 0 0 1-21.333333-21.333333V85.333333a21.333333 21.333333 0 0 1 21.333333-21.333333h1877.333334m0-64H85.333333a85.333333 85.333333 0 0 0-85.333333 85.333333v853.333334a85.333333 85.333333 0 0 0 85.333333 85.333333h1877.333334a85.333333 85.333333 0 0 0 85.333333-85.333333V85.333333a85.333333 85.333333 0 0 0-85.333333-85.333333z" p-id="8813"></path></svg>