<?xml version="1.0" standalone="no"?><!DOCTYPE svg PUBLIC "-//W3C//DTD SVG 1.1//EN" "http://www.w3.org/Graphics/SVG/1.1/DTD/svg11.dtd"><svg t="1721286094447" class="icon" viewBox="0 0 1024 1024" version="1.1" xmlns="http://www.w3.org/2000/svg" p-id="6072" xmlns:xlink="http://www.w3.org/1999/xlink" width="1em" height="1em"><path fill="currentColor" d="M512.341333 144c130.602667 0.938667 237.482667 107.946667 238.250667 238.549333v1.365334a239.402667 239.402667 0 0 1-66.432 165.845333l0.085333-0.085333 45.269334 45.269333a303.104 303.104 0 0 0 85.077333-211.029333v-1.792 0.085333c-0.981333-165.461333-136.362667-301.013333-301.824-302.165333h-3.157333a300.373333 300.373333 0 0 0-210.005334 85.162666l0.085334-0.085333 45.269333 45.269333a237.653333 237.653333 0 0 1 165.034667-66.346666h2.432-0.128zM718.592 674.474667L76.117333 32H30.592v44.970667l196.608 196.608a298.794667 298.794667 0 0 0-20.608 109.952v0.512V384v64h64V384v-0.170667c0-21.12 2.688-41.6 7.808-61.098666l-0.384 1.664 56.661333 56.661333-0.085333 4.778667v171.477333l10.197333 10.154667a236.16 236.16 0 0 1 69.802667 167.936v0.682666-0.042666h64v-0.853334a299.178667 299.178667 0 0 0-80.170667-204.245333l0.170667 0.170667V445.013333l256 256v52.352a126.848 126.848 0 0 1-126.677333 126.677334h-49.322667v64h49.322667a190.890667 190.890667 0 0 0 190.293333-178.816l0.042667-0.554667 227.370666 227.370667h44.970667v-45.525334z" p-id="6073"></path><path fill="currentColor" d="M509.269333 208a173.568 173.568 0 0 0-118.698666 48.042667l0.085333-0.085334 45.226667 45.226667a109.866667 109.866667 0 0 1 73.813333-29.226667h0.896a112 112 0 0 1 112 112h64a176 176 0 0 0-176-176h-1.408 0.085333z" p-id="6074"></path></svg>