<?xml version="1.0" standalone="no"?><!DOCTYPE svg PUBLIC "-//W3C//DTD SVG 1.1//EN" "http://www.w3.org/Graphics/SVG/1.1/DTD/svg11.dtd"><svg t="1721793540507" class="icon" viewBox="0 0 1024 1024" version="1.1" xmlns="http://www.w3.org/2000/svg" p-id="12460" xmlns:xlink="http://www.w3.org/1999/xlink" width="1em" height="1em"><path fill="currentColor" d="M142.222222 105.244444A93.866667 93.866667 0 0 0 48.355556 199.111111v625.777778c0 51.825778 42.040889 93.866667 93.866666 93.866667h739.555556a93.866667 93.866667 0 0 0 93.866666-93.866667v-625.777778a93.866667 93.866667 0 0 0-93.866666-93.866667h-739.555556zM122.311111 199.111111a19.911111 19.911111 0 0 1 19.911111-19.911111h739.555556a19.911111 19.911111 0 0 1 19.911111 19.911111v625.777778a19.911111 19.911111 0 0 1-19.911111 19.911111H520.533333V597.333333A93.866667 93.866667 0 0 0 426.666667 503.466667H122.311111V199.111111z m0 378.311111v247.466667c0 10.979556 8.931556 19.911111 19.911111 19.911111h304.355556V597.333333a19.911111 19.911111 0 0 0-19.911111-19.911111H122.311111z" p-id="12461"></path></svg>